<?xml version="1.0" encoding="UTF-8"?>
<svg id="Layer_2" data-name="Layer 2" xmlns="http://www.w3.org/2000/svg" viewBox="0 0 200 40.06">
  <defs>
    <style>
      .cls-1 {
        fill: #14171a;
      }

      .cls-1, .cls-2 {
        stroke-width: 0px;
      }

      .cls-2 {
        fill: #104c91;
      }
    </style>
  </defs>
  <g id="Layer_6" data-name="Layer 6">
    <g>
      <g>
        <path class="cls-1" d="m74.08,17.95h-19.9c-1.32,0-2.4-1.08-2.4-2.4s1.08-2.4,2.4-2.4h23.33c1.16,0,2.09-.94,2.09-2.09s-.94-2.09-2.09-2.09h-23.33c-3.63,0-6.59,2.95-6.59,6.59s2.95,6.59,6.59,6.59h19.9c1.34,0,2.43,1.09,2.43,2.42s-1.09,2.43-2.43,2.43h-23.23c-1.16,0-2.09.94-2.09,2.09s.94,2.09,2.09,2.09h23.23c3.64,0,6.61-2.97,6.61-6.61s-2.97-6.61-6.61-6.61Z"/>
        <path class="cls-1" d="m110.72,8.89h-18.64c-3.7,0-6.71,3.01-6.71,6.71v22.37c0,1.16.94,2.09,2.09,2.09s2.09-.94,2.09-2.09v-7.37c.78.32,1.63.5,2.52.5h18.64c3.7,0,6.71-3.01,6.71-6.71v-8.8c0-3.7-3.01-6.71-6.71-6.71Zm2.52,15.5c0,1.39-1.13,2.52-2.52,2.52h-18.64c-1.39,0-2.52-1.13-2.52-2.52v-8.8c0-1.39,1.13-2.52,2.52-2.52h18.64c1.39,0,2.52,1.13,2.52,2.52v8.8Z"/>
        <path class="cls-1" d="m161.05,0c-1.16,0-2.09.94-2.09,2.09v7.37c-.78-.32-1.63-.5-2.52-.5h-18.64c-3.7,0-6.71,3.01-6.71,6.71v8.8c0,3.7,3.01,6.71,6.71,6.71h18.64c3.7,0,6.71-3.01,6.71-6.71V2.09C163.14.94,162.21,0,161.05,0Zm-2.09,24.47c0,1.39-1.13,2.52-2.52,2.52h-18.64c-1.39,0-2.52-1.13-2.52-2.52v-8.8c0-1.39,1.13-2.52,2.52-2.52h18.64c1.39,0,2.52,1.13,2.52,2.52v8.8Z"/>
        <g>
          <path class="cls-1" d="m124.32,8.96c-1.16,0-2.09.94-2.09,2.09v18.02c0,1.16.94,2.09,2.09,2.09s2.09-.94,2.09-2.09V11.06c0-1.16-.94-2.09-2.09-2.09Z"/>
          <circle class="cls-1" cx="124.21" cy="2.1" r="2.1"/>
        </g>
        <path class="cls-1" d="m193.29,8.96h-18.89c-3.63,0-6.57,2.95-6.57,6.57v13.54c0,1.16.94,2.09,2.09,2.09s2.09-.94,2.09-2.09v-13.54c0-1.32,1.07-2.39,2.39-2.39h18.89c1.39,0,2.52,1.13,2.52,2.52v2.43c0,1.16.94,2.09,2.09,2.09s2.09-.94,2.09-2.09v-2.43c0-3.7-3.01-6.71-6.71-6.71Z"/>
      </g>
      <path class="cls-2" d="m34.78,11.3v-5.25L24.31,0l-4.65,2.68L15.02,0,4.55,6.05v5.25L0,13.93v12.2l4.55,2.63v5.26l10.47,6.05,4.21-2.44.43-.25,4.64,2.69,10.47-6.05v-5.26l4.55-2.63v-12.2l-4.55-2.63Zm-15.85,24.07l-.74.42-2.42,1.4-.74.43-.65-.38-2.51-1.45-.65-.37v-4.74c.28-.22.47-.55.47-.93,0-.66-.54-1.2-1.2-1.2s-1.2.54-1.2,1.2c0,.42.23.77.55.98v3.88l-2.51-1.45-.65-.38v-4.51l.65-.38,2.51-1.45.65-.38.74.43,2.42,1.4.74.43v4.62c-.33.21-.56.57-.56.99,0,.66.54,1.2,1.2,1.2s1.2-.54,1.2-1.2c0-.38-.19-.7-.46-.92v-5.49l-.74-.43-.65-.38-2.51-1.45-.65-.38v-4.67c.28-.22.47-.55.47-.93,0-.66-.54-1.2-1.2-1.2s-1.2.54-1.2,1.2c0,.42.23.77.55.98v4.56l-.74.43-2.42,1.4-.74.42-.65-.38-2.51-1.45-.65-.38v-3.65l2.42,1.4.74.43.23.13c.09.57.57,1.01,1.16,1.01.66,0,1.2-.54,1.2-1.2s-.54-1.2-1.2-1.2c-.2,0-.38.06-.54.14l-.2-.12-.65-.38-2.51-1.45-.65-.37v-4.51l.65-.38,2.51-1.45.65-.38h0l.74.43,2.42,1.4-2.42,1.4-.74.43-.24.14c-.12-.04-.25-.08-.39-.08-.66,0-1.2.54-1.2,1.2s.54,1.2,1.2,1.2,1.2-.53,1.2-1.19l.17-.1.65-.38,2.51-1.45.65-.38.74-.43.65-.37,2.51-1.45.65-.38.74-.43v-5.51c.27-.22.46-.54.46-.92,0-.66-.54-1.2-1.2-1.2s-1.2.54-1.2,1.2c0,.42.23.77.56.99v4.64l-.74.42-2.42,1.4-.74.43-.65-.38-2.51-1.45-.65-.37v-4.51l.65-.38,2.51-1.45v3.88c-.32.22-.55.57-.55.98,0,.66.54,1.2,1.2,1.2s1.2-.54,1.2-1.2c0-.38-.19-.71-.47-.93v-4.74l.65-.38,2.51-1.45.65-.38.74.43,2.42,1.4.74.42v9.66l-.74.42h0l-2.42,1.4-.74.43-.65.37v6.11l.65.38.74.43,2.42,1.4.74.43v9.66Zm.74-10.84l-3.9-2.25v-4.51l3.9-2.25,3.9,2.25v4.51l-3.9,2.25Zm17.56-4.88l-.65.37-2.51,1.45-.65.38-.2.12c-.16-.08-.34-.14-.54-.14-.66,0-1.2.54-1.2,1.2s.54,1.2,1.2,1.2c.6,0,1.07-.44,1.16-1.01l.23-.13.74-.43,2.42-1.4v3.65l-.65.38-2.51,1.45-.65.38-.74-.42-2.42-1.4-.74-.43v-4.56c.32-.22.55-.57.55-.98,0-.66-.54-1.2-1.2-1.2s-1.2.54-1.2,1.2c0,.38.19.71.47.93v4.67l-.65.38-2.51,1.45-.65.38-.74.43v5.49c-.27.22-.46.54-.46.92,0,.66.54,1.2,1.2,1.2s1.2-.54,1.2-1.2c0-.42-.23-.77-.56-.99v-4.62l.74-.43,2.42-1.4.74-.43.65.38,2.51,1.45.65.38v4.51l-.65.38-2.51,1.45v-3.88c.32-.22.55-.57.55-.98,0-.66-.54-1.2-1.2-1.2s-1.2.54-1.2,1.2c0,.38.19.71.47.93v4.74l-.65.37-2.51,1.45-.65.38-.74-.43-2.42-1.4-.74-.42v-9.66l.74-.43,2.42-1.4.74-.43.65-.38v-6.11l-.65-.37-.74-.43-2.42-1.4h0l-.74-.42V4.69l.74-.42,2.42-1.4.74-.43.65.38,2.51,1.45.65.38v4.74c-.28.22-.47.55-.47.93,0,.66.54,1.2,1.2,1.2s1.2-.54,1.2-1.2c0-.42-.23-.77-.55-.98v-3.88l2.51,1.45.65.38v4.51l-.65.37-2.51,1.45-.65.38-.74-.43-2.42-1.4-.74-.42v-4.64c.33-.21.56-.57.56-.99,0-.66-.54-1.2-1.2-1.2s-1.2.54-1.2,1.2c0,.38.19.7.46.92v5.51l.74.43.65.38,2.51,1.45.65.37.74.43.65.38,2.51,1.45.65.38.17.1c0,.66.54,1.19,1.2,1.19s1.2-.54,1.2-1.2-.54-1.2-1.2-1.2c-.14,0-.27.04-.39.08l-.24-.14-.74-.43-2.42-1.4,2.42-1.4.74-.43h0l.65.38,2.51,1.45.65.38v4.51Z"/>
    </g>
  </g>
</svg>